HIERARCHY
ROOT hip
{
  OFFSET 0 0 0
  CHANNELS 6 Xposition Yposition Zposition Zrotation Yrotation Xrotation
  JOINT abdomen
  {
    OFFSET 0 20.6881 -0.73152
    CHANNELS 3 Zrotation Xrotation Yrotation
    JOINT chest
    {
      OFFSET 0 11.7043 -0.48768
      CHANNELS 3 Zrotation Xrotation Yrotation
      JOINT neck
      {
        OFFSET 0 22.1894 -2.19456
        CHANNELS 3 Zrotation Xrotation Yrotation
        JOINT head
        {
          OFFSET -0.24384 7.07133 1.2192
          CHANNELS 3 Zrotation Xrotation Yrotation
          JOINT leftEye
          {
            OFFSET 4.14528 8.04674 8.04672
            CHANNELS 3 Zrotation Xrotation Yrotation
            End Site
            {
              OFFSET 1 0 0
            }
          }
          JOINT rightEye
          {
            OFFSET -3.6576 8.04674 8.04672
            CHANNELS 3 Zrotation Xrotation Yrotation
            End Site
            {
              OFFSET 1 0 0
            }
          }
        }
      }
      JOINT rCollar
      {
        OFFSET -2.68224 19.2634 -4.8768
        CHANNELS 3 Zrotation Xrotation Yrotation
        JOINT rShldr
        {
          OFFSET -8.77824 -1.95073 1.46304
          CHANNELS 3 Zrotation Xrotation Yrotation
          JOINT rForeArm
          {
            OFFSET -28.1742 -1.7115 0.48768
            CHANNELS 3 Zrotation Xrotation Yrotation
            JOINT rHand
            {
              OFFSET -22.5879 0.773209 7.07136
              CHANNELS 3 Zrotation Xrotation Yrotation
              JOINT rThumb1
              {
                OFFSET -1.2192 -0.487915 3.41376
                CHANNELS 3 Zrotation Xrotation Yrotation
                JOINT rThumb2
                {
                  OFFSET -3.37035 -0.52449 3.41376
                  CHANNELS 3 Zrotation Xrotation Yrotation
                  End Site
                  {
                    OFFSET -1.78271 -1.18214 1.43049
                  }
                }
              }
              JOINT rIndex1
              {
                OFFSET -7.75947 0.938293 5.60832
                CHANNELS 3 Zrotation Xrotation Yrotation
                JOINT rIndex2
                {
                  OFFSET -2.54057 -0.884171 1.56538
                  CHANNELS 3 Zrotation Xrotation Yrotation
                  End Site
                  {
                    OFFSET -1.62519 -0.234802 1.16502
                  }
                }
              }
              JOINT rMid1
              {
                OFFSET -8.24714 1.18213 3.41376
                CHANNELS 3 Zrotation Xrotation Yrotation
                JOINT rMid2
                {
                  OFFSET -3.10165 -0.590103 1.0647
                  CHANNELS 3 Zrotation Xrotation Yrotation
                  End Site
                  {
                    OFFSET -2.48547 -0.328903 0.83742
                  }
                }
              }
              JOINT rRing1
              {
                OFFSET -8.82822 0.546677 1.51678
                CHANNELS 3 Zrotation Xrotation Yrotation
                JOINT rRing2
                {
                  OFFSET -2.60934 -0.819778 -0.0198488
                  CHANNELS 3 Zrotation Xrotation Yrotation
                  End Site
                  {
                    OFFSET -2.33842 -0.294052 0.168128
                  }
                }
              }
              JOINT rPinky1
              {
                OFFSET -8.27202 -0.0477905 -0.4584
                CHANNELS 3 Zrotation Xrotation Yrotation
                JOINT rPinky2
                {
                  OFFSET -1.82734 -0.647385 -0.700984
                  CHANNELS 3 Zrotation Xrotation Yrotation
                  End Site
                  {
                    OFFSET -1.69225 -0.51767 -0.607171
                  }
                }
              }
            }
          }
        }
      }
      JOINT lCollar
      {
        OFFSET 2.68224 19.2634 -4.8768
        CHANNELS 3 Zrotation Xrotation Yrotation
        JOINT lShldr
        {
          OFFSET 8.77824 -1.95073 1.46304
          CHANNELS 3 Zrotation Xrotation Yrotation
          JOINT lForeArm
          {
            OFFSET 28.1742 -1.7115 0.48768
            CHANNELS 3 Zrotation Xrotation Yrotation
            JOINT lHand
            {
              OFFSET 22.5879 0.773209 7.07136
              CHANNELS 3 Zrotation Xrotation Yrotation
              JOINT lThumb1
              {
                OFFSET 1.2192 -0.487915 3.41376
                CHANNELS 3 Zrotation Xrotation Yrotation
                JOINT lThumb2
                {
                  OFFSET 3.37035 -0.52449 3.41376
                  CHANNELS 3 Zrotation Xrotation Yrotation
                  End Site
                  {
                    OFFSET 1.78271 -1.18214 1.43049
                  }
                }
              }
              JOINT lIndex1
              {
                OFFSET 7.75947 0.938293 5.60832
                CHANNELS 3 Zrotation Xrotation Yrotation
                JOINT lIndex2
                {
                  OFFSET 2.54057 -0.884171 1.56538
                  CHANNELS 3 Zrotation Xrotation Yrotation
                  End Site
                  {
                    OFFSET 1.62519 -0.234802 1.16502
                  }
                }
              }
              JOINT lMid1
              {
                OFFSET 8.24714 1.18213 3.41376
                CHANNELS 3 Zrotation Xrotation Yrotation
                JOINT lMid2
                {
                  OFFSET 3.10165 -0.590103 1.0647
                  CHANNELS 3 Zrotation Xrotation Yrotation
                  End Site
                  {
                    OFFSET 2.48547 -0.328903 0.83742
                  }
                }
              }
              JOINT lRing1
              {
                OFFSET 8.82822 0.546677 1.51678
                CHANNELS 3 Zrotation Xrotation Yrotation
                JOINT lRing2
                {
                  OFFSET 2.60934 -0.819778 -0.0198488
                  CHANNELS 3 Zrotation Xrotation Yrotation
                  End Site
                  {
                    OFFSET 2.33842 -0.294052 0.168128
                  }
                }
              }
              JOINT lPinky1
              {
                OFFSET 8.27202 -0.0477905 -0.4584
                CHANNELS 3 Zrotation Xrotation Yrotation
                JOINT lPinky2
                {
                  OFFSET 1.82734 -0.647385 -0.700984
                  CHANNELS 3 Zrotation Xrotation Yrotation
                  End Site
                  {
                    OFFSET 1.69225 -0.51767 -0.607171
                  }
                }
              }
            }
          }
        }
      }
    }
  }
  JOINT rButtock
  {
    OFFSET -8.77824 4.35084 1.2192
    CHANNELS 3 Zrotation Xrotation Yrotation
    JOINT rThigh
    {
      OFFSET 0 -1.70687 -2.19456
      CHANNELS 3 Zrotation Xrotation Yrotation
      JOINT rShin
      {
        OFFSET 0 -36.8199 0.73152
        CHANNELS 3 Zrotation Xrotation Yrotation
        JOINT rFoot
        {
          OFFSET 0.73152 -45.1104 -5.12064
          CHANNELS 3 Zrotation Xrotation Yrotation
          End Site
          {
            OFFSET -1.1221 -3.69964 12.103
          }
        }
      }
    }
  }
  JOINT lButtock
  {
    OFFSET 8.77824 4.35084 1.2192
    CHANNELS 3 Zrotation Xrotation Yrotation
    JOINT lThigh
    {
      OFFSET 0 -1.70687 -2.19456
      CHANNELS 3 Zrotation Xrotation Yrotation
      JOINT lShin
      {
        OFFSET 0 -36.8199 0.73152
        CHANNELS 3 Zrotation Xrotation Yrotation
        JOINT lFoot
        {
          OFFSET -0.73152 -45.1104 -5.12064
          CHANNELS 3 Zrotation Xrotation Yrotation
          End Site
          {
            OFFSET 1.1221 -3.69964 12.103
          }
        }
      }
    }
  }
}
MOTION
Frames:	5
Frame Time:	0.00833333
67.6088 -2.8205999999999998 -138.8834 49.460202 17.913739 -145.542517 -150.75271 -30.521462 -180.0 120.627486 -9.180468 -60.582319 121.747156 21.16487 -8.482297 109.675622 18.339306 66.479471 163.770061 -4.379263 30.021479 -8.750484 -6.786237 75.546016 43.071183 20.856416 154.298082 -155.856307 21.820359 55.146781 31.906152 17.5296 -137.611238 175.984683 6.380302 10.887976 -9.107327 28.61764 -118.023755 147.229178 -27.698524 -40.105332 161.611353 25.651814 -86.681075 171.435571 -4.133525 -22.494001 140.988419 -55.236447 -81.644569 -170.736827 36.15461 -139.029646 87.25095 4.149311 101.326701 138.37968 13.552585 36.139675 -34.727692 66.025372 47.903317 -33.746108 -37.240767 125.173662 76.641193 3.940897 13.472211 -93.688171 -49.268814 -146.766526 -170.304601 0.763371 -16.549351 0.980364 -39.758817 -141.778046 -23.090607 7.905022 33.397871 149.323233 -7.183333 -105.980711 76.276401 31.298158 -179.570358 -23.389459 -55.790694 148.176817 103.275275 25.417399 -66.09745 -2.734754 45.338282 121.269497 57.738961 64.956484 125.423869 -34.088733 -47.632221 171.915281 -34.510875 2.489454 -113.730869 105.247584 53.652666 -3.258833 105.989737 -5.203827 26.048274 -98.461992 -0.805927 89.880104 142.111127 24.740759 -58.325876 -85.958932 -14.987372 -91.051282 -36.858278 -3.21216 71.648698 -45.433391 -68.588724 180.0 -168.79111 26.089334 164.717527 86.842866 1.941939 -34.089268
68.9704 -2.7923 -141.6762 49.347875 17.81288 -145.510575 -151.66066 -26.115678 14.47999 -122.414553 24.27048 121.943541 137.460256 29.801195 84.721773 106.665505 -79.909702 94.037017 163.884762 -4.578219 31.535903 -9.217031 -7.217723 76.081452 -173.391447 25.993122 6.260465 -106.544682 82.383015 -133.496137 -12.897874 19.339513 99.169255 -1.024816 10.146959 -134.961878 -151.841037 -22.181901 -136.509457 -56.297401 11.833459 -134.112267 114.628883 -3.708559 -94.73865 163.824836 61.051786 -57.167539 118.247525 -59.196362 -103.108593 12.597733 -2.993127 -76.146037 88.928427 5.069342 100.022411 -98.408049 -61.318226 98.333842 -70.572313 -62.68695 -44.317283 162.033379 6.765118 2.70418 -126.366258 40.717787 -168.609162 -107.86895 33.834122 71.119899 22.918613 30.300775 -145.618261 149.909082 41.88704 87.080383 140.223789 8.866159 -121.815624 89.104425 6.706337 -66.809952 -117.365882 45.470524 64.789591 -0.865971 31.42806 126.81849 -18.730151 -37.048111 -44.299557 -15.668894 -11.017175 -122.115532 40.8955 58.304568 136.872326 166.910368 51.906556 1.288914 -8.605521 -0.547589 -122.950741 32.341713 66.110373 76.959416 141.534723 28.287585 59.183401 -155.003376 28.220085 135.404119 144.196235 8.449049 29.29949 -135.056567 -45.032329 -130.727033 -36.781996 -2.45124 71.87628 -48.524656 -66.059085 0.0 163.626801 -17.24544 -99.539208 133.750025 -18.229648 -119.292614
70.32939999999999 -2.8005 -144.4709 49.164197 17.745067 -145.49036 -153.247131 -26.515804 48.471269 -138.720908 50.993309 150.729828 137.76181 31.644958 98.244586 -126.28564 -86.178195 -136.406459 164.145919 -4.493644 31.472628 -9.053759 -7.076973 75.981619 139.827128 -85.632583 -74.364077 95.858823 -5.648287 -124.71651 -141.438681 68.294591 -121.325939 -1.7724 13.556591 -135.267766 -17.659491 26.116548 -114.624764 124.943091 31.884719 -5.659408 86.972935 -14.193272 -107.669539 99.809939 -31.656637 -88.446673 -8.490647 71.262956 -164.338092 -150.11566 13.447914 60.69417 92.739633 4.847944 98.943761 -98.826819 -63.588599 99.812383 -37.812769 -43.388037 -8.600156 122.791568 71.069323 56.264343 -161.895157 81.690151 -125.062941 -98.252123 32.255301 107.022235 55.144779 -81.013803 -141.596842 10.61219 -6.036003 -144.131226 -29.630283 -24.033244 35.503194 1.854102 -54.209711 12.431429 15.487716 -32.89419 147.465156 -37.760482 34.784183 -110.343008 -145.557796 -21.357228 -107.057774 34.458436 -23.096854 174.432696 -3.396727 8.906217 143.995324 171.198825 26.428092 4.494492 42.231168 -17.230009 -133.43226 132.641301 67.534829 48.560979 93.160907 -9.864973 14.250379 -85.038197 -11.895604 91.025227 150.456164 33.579077 171.628713 98.227694 -6.886618 67.474482 -62.195821 62.013001 148.880165 -127.077618 -16.759543 110.916005 -158.585266 -6.350598 0.188936 114.708021 -25.694463 -145.150198
71.6785 -2.8316 -147.2369 49.029126 17.733487 -145.476346 -151.980555 -25.156102 13.86785 -121.704771 23.278393 123.756198 114.671158 26.818556 -58.257688 151.063092 63.436518 22.889165 164.253466 -4.265305 30.143297 -8.45861 -6.55796 75.53256 161.089055 58.60954 34.863243 -72.73109 -48.482556 146.278012 -9.390208 80.465557 -112.690246 165.931688 -21.215288 6.906708 179.013201 -17.042936 -149.468104 -29.948578 30.079469 -108.14876 -2.007929 2.748659 -153.548996 25.815559 28.267809 -142.928917 117.876523 -59.271514 -102.834354 164.222033 32.999983 -132.859959 -85.275419 -39.030476 81.613152 147.865321 -55.166908 -98.046065 -95.072253 -64.183463 -70.864195 23.680278 -6.150793 -135.19654 76.297691 23.74501 9.485856 64.768126 5.451751 -1.062664 -130.426151 -73.734231 105.892335 174.644302 -9.680969 68.787834 43.437957 72.235754 -29.252765 148.353641 -36.775251 -115.733329 168.520658 71.493962 118.761195 7.156752 -1.877558 138.551433 -102.745539 -42.189308 -90.681981 -65.032656 68.679299 -58.703214 -109.658577 -29.425115 63.323829 171.298299 -26.337052 3.708635 -130.584989 -19.26003 -88.46333 115.552314 -5.22819 -89.883372 22.381984 18.547193 -52.316678 30.440677 -38.000573 20.385754 -144.813724 11.976136 -132.485138 95.384826 67.510886 100.071392 -101.121074 -37.244406 -17.738217 99.665781 -36.072779 8.80083 157.079525 -1.725355 -30.969597 97.799844 -55.971107 -27.613906
73.016 -2.8693 -149.9592 48.990103 17.768289 -145.468865 -149.20539 -28.384685 -128.577374 141.514326 -48.191824 -20.80719 119.697649 18.97952 -15.483592 114.175606 27.667952 62.512412 164.222035 -3.994324 28.251286 -7.708615 -5.9133 74.94942 40.216951 2.963468 157.515769 101.568825 35.13607 130.560881 70.615432 -41.576599 -74.065368 -179.43851 23.790776 10.263244 8.9896 30.774272 -125.706038 141.086798 30.964906 2.019369 159.143479 24.839745 -85.32318 173.539731 -20.63549 -25.092543 7.77375 57.447919 -176.612124 140.993575 17.589301 98.656839 -99.035879 -35.390187 75.756268 91.5089 -29.289741 -135.952003 -19.635402 39.841863 26.499431 -133.726617 -47.165558 94.92886 168.976233 80.497724 -94.369845 -99.458872 29.742633 106.680604 -175.02223 -82.686438 -13.853844 6.606333 -18.324181 -142.496762 162.558243 -74.566992 -119.42639 162.703361 -17.164761 -88.398538 -162.659761 68.574765 94.908158 177.290683 10.000055 116.964144 89.719078 24.071196 -59.123352 -125.507718 -35.966717 137.034248 -154.996763 12.551805 34.856438 169.44525 8.933384 -0.750295 50.802058 -20.774242 -133.286682 -44.033613 -39.115522 89.462203 -18.778831 75.187501 -71.562415 103.317564 5.818361 0.0 -148.465492 -22.623595 -24.187698 -125.21699 -0.031044 -59.689761 -86.707292 -39.147326 0.0 89.155764 -43.940522 -1.243239 156.389892 13.37746 -153.187713 126.963559 39.053792 -69.36134
